<svg width="396" height="427" viewBox="0 0 396 427" fill="none" xmlns="http://www.w3.org/2000/svg">
<ellipse cx="40.086" cy="95.3923" rx="40.086" ry="95.3923" transform="matrix(0.546227 0.837637 -0.609169 0.793041 131.632 161.784)" fill="#945123"/>
<path d="M114.958 308.776C90.5553 340.545 55.6124 361.354 46.4173 347.254C37.2221 333.153 48.6658 308.218 73.0688 276.449C97.4717 244.68 146.149 191.837 155.344 205.938C164.539 220.038 139.361 277.007 114.958 308.776Z" fill="#7F451C"/>
<ellipse cx="40.086" cy="95.3923" rx="40.086" ry="95.3923" transform="matrix(-0.550364 0.834925 0.605237 0.796045 265.507 161.056)" fill="#945123"/>
<path d="M281.454 308.128C305.699 340.018 340.539 361 349.803 346.945C359.068 332.89 347.748 307.898 323.503 276.009C299.257 244.12 250.842 191.037 241.577 205.092C232.313 219.147 257.208 276.239 281.454 308.128Z" fill="#7F451C"/>
<path d="M294.892 269.5C312.475 327.191 252.057 382 199.218 382C146.379 382 88.0301 330.645 103.545 269.5C119.059 208.355 146.379 157 199.218 157C252.057 157 278.343 210.822 294.892 269.5Z" fill="#945123"/>
<path fill-rule="evenodd" clip-rule="evenodd" d="M293.175 263.492C273.596 296.384 234.401 319.768 198.436 319.768C162.46 319.768 124.133 297.844 104.667 265.113C104.286 266.549 103.912 267.991 103.545 269.439C88.0301 330.584 146.379 381.939 199.218 381.939C252.057 381.939 312.475 327.13 294.892 269.439C294.331 267.45 293.759 265.467 293.175 263.492Z" fill="#7F451C"/>
<path d="M151 44C151 60.5685 137.569 74 121 74C104.431 74 91 60.5685 91 44C91 27.4315 104.431 14 121 14C137.569 14 151 27.4315 151 44Z" fill="#7F451C"/>
<path d="M318 44C318 60.5685 304.569 74 288 74C271.431 74 258 60.5685 258 44C258 27.4315 271.431 14 288 14C304.569 14 318 27.4315 318 44Z" fill="#7F451C"/>
<path d="M301 111C301 166.228 256.229 211 201 211C145.772 211 101 166.228 101 111C101 55.7715 145.772 11 201 11C256.229 11 301 55.7715 301 111Z" fill="#7F451C"/>
<path d="M300 100C300 155.228 255.229 200 200 200C144.772 200 100 155.228 100 100C100 44.7715 144.772 0 200 0C255.229 0 300 44.7715 300 100Z" fill="#945123"/>
<path d="M146 47C146 63.5685 132.569 77 116 77C99.4315 77 86 63.5685 86 47C86 30.4315 99.4315 17 116 17C132.569 17 146 30.4315 146 47Z" fill="#945123"/>
<path d="M313 47C313 63.5685 299.569 77 283 77C266.431 77 253 63.5685 253 47C253 30.4315 266.431 17 283 17C299.569 17 313 30.4315 313 47Z" fill="#945123"/>
<path d="M131 47C131 55.2843 124.284 62 116 62C107.716 62 101 55.2843 101 47C101 38.7157 107.716 32 116 32C124.284 32 131 38.7157 131 47Z" fill="#462610"/>
<path d="M298 47C298 55.2843 291.284 62 283 62C274.716 62 268 55.2843 268 47C268 38.7157 274.716 32 283 32C291.284 32 298 38.7157 298 47Z" fill="#462610"/>
<ellipse cx="163.423" cy="99.5" rx="13.4228" ry="12.5" fill="#141414"/>
<ellipse cx="236.577" cy="99.5" rx="13.4228" ry="12.5" fill="#141414"/>
<path fill-rule="evenodd" clip-rule="evenodd" d="M162.437 90.3358C161.834 90.1981 161.204 90.125 160.555 90.125C156.208 90.125 152.684 93.4067 152.684 97.455C152.684 99.4251 153.519 101.214 154.877 102.531L162.437 90.3358Z" fill="white"/>
<path fill-rule="evenodd" clip-rule="evenodd" d="M236.263 90.9608C235.66 90.8231 235.03 90.75 234.381 90.75C230.034 90.75 226.51 94.0317 226.51 98.08C226.51 100.05 227.345 101.839 228.703 103.156L236.263 90.9608Z" fill="white"/>
<path d="M155 149.354C155 126.432 175.595 112 201 112C226.405 112 247 126.432 247 149.354C247 172.276 226.405 179 201 179C175.595 179 155 172.276 155 149.354Z" fill="#D69858"/>
<path fill-rule="evenodd" clip-rule="evenodd" d="M206.668 160.978C216.903 164.313 228.22 159.589 231.945 150.427C232.283 149.596 233.6 149.565 233.585 150.44C233.552 152.358 233.167 154.304 232.392 156.209C228.667 165.371 217.35 170.095 207.115 166.761C205.153 166.121 203.373 165.232 201.804 164.148C198.799 162.072 203.127 159.825 206.668 160.978Z" fill="#141414"/>
<path d="M219 130.032C219 135.021 210.493 142 200 142C189.507 142 181 135.021 181 130.032C181 125.044 189.507 121 200 121C210.493 121 219 125.044 219 130.032Z" fill="#462610"/>
<path d="M138.448 74.0129C137.021 70.0917 143.393 64.5957 152.201 61.39C161.009 58.1842 167.487 57.3103 168.914 61.2315C170.341 65.1527 164.951 67.0467 156.143 70.2525C147.336 73.4583 139.875 77.9341 138.448 74.0129Z" fill="#141414"/>
<path d="M224.972 59.7263C226.399 55.8051 234.813 55.6909 243.621 58.8967C252.429 62.1025 257.953 65.597 256.526 69.5182C255.099 73.4394 249.752 71.4257 240.945 68.2199C232.137 65.0142 223.545 63.6474 224.972 59.7263Z" fill="#141414"/>
<path d="M170 367C170 394.614 147.614 417 120 417C92.3858 417 70 394.614 70 367C70 339.386 92.3858 297 120 297C147.614 297 170 339.386 170 367Z" fill="#945123"/>
<path d="M156 390C156 417.614 138.614 427 111 427C83.3858 427 63.5 417.614 63.5 390C63.5 362.386 83.3858 320 111 320C138.614 320 156 362.386 156 390Z" fill="#7F451C"/>
<path d="M328 367C328 394.614 305.614 417 278 417C250.386 417 228 394.614 228 367C228 339.386 250.386 297 278 297C305.614 297 328 339.386 328 367Z" fill="#945123"/>
<path d="M333.5 390C333.5 417.614 316.114 427 288.5 427C260.886 427 241 417.614 241 390C241 362.386 260.886 320 288.5 320C316.114 320 333.5 362.386 333.5 390Z" fill="#7F451C"/>
<path d="M145.871 378.729C149.742 389.363 138.154 403.344 119.99 409.955C101.826 416.567 83.9631 413.305 80.0924 402.67C76.2216 392.035 84.725 369.582 102.889 362.971C121.053 356.359 142 368.094 145.871 378.729Z" fill="#D69858"/>
<path d="M318.787 402.67C314.916 413.305 297.053 416.567 278.889 409.955C260.725 403.344 249.138 389.363 253.009 378.729C256.879 368.094 277.826 356.359 295.99 362.971C314.154 369.582 322.658 392.035 318.787 402.67Z" fill="#D69858"/>
</svg>
