<?xml version="1.0" ?><svg viewBox="0 0 64 64" fill="#c2c7d0" xmlns="http://www.w3.org/2000/svg"><g id="Bed"><path d="M53.67,37.52V34.71h0V14.61a3.83,3.83,0,0,0-7.38-1.44c-2-.84-6.53-2.26-14.29-2.26s-12.29,1.42-14.29,2.26a3.83,3.83,0,0,0-7.38,1.44v20.1h0v2.81A3.48,3.48,0,0,0,7,41v9.49a2.74,2.74,0,0,0,2.74,2.74c1.57,0,2.2-1.34,2.65-2.32l1.76-3.76h35.7L51.65,51c.41.89,1,2.23,2.61,2.23A2.74,2.74,0,0,0,57,50.48V41A3.48,3.48,0,0,0,53.67,37.52Zm-41.34,0v-2.8A3.66,3.66,0,0,1,16,31.06H48a3.66,3.66,0,0,1,3.65,3.65v2.8ZM17,27.45a2.19,2.19,0,0,1,2.19-2.2h5.41a2.2,2.2,0,0,1,2.2,2.2v1.61H17Zm13.09-.55h3.86a1.29,1.29,0,0,1,1.29,1.29v.87H28.78v-.87A1.29,1.29,0,0,1,30.07,26.9Zm7.15.55a2.2,2.2,0,0,1,2.2-2.2h5.41A2.19,2.19,0,0,1,47,27.45v1.61h-9.8ZM49.83,12.78a1.83,1.83,0,0,1,1.84,1.83v15.8A5.62,5.62,0,0,0,49,29.16V27.45a4.18,4.18,0,0,0-1-2.72V14.61A1.83,1.83,0,0,1,49.83,12.78ZM46,15.22v8.22a3.77,3.77,0,0,0-1.17-.19H39.42a4.19,4.19,0,0,0-3.67,2.2,3.33,3.33,0,0,0-1.82-.55H30.07a3.33,3.33,0,0,0-1.82.55,4.19,4.19,0,0,0-3.67-2.2H19.17a3.77,3.77,0,0,0-1.17.19V15.22c1.37-.63,5.77-2.31,14-2.31S44.63,14.59,46,15.22ZM14.17,12.78A1.83,1.83,0,0,1,16,14.61V24.73a4.18,4.18,0,0,0-1,2.72v1.71a5.62,5.62,0,0,0-2.65,1.25V14.61A1.83,1.83,0,0,1,14.17,12.78ZM55,50.48a.74.74,0,0,1-.74.74c-.24,0-.39-.21-.84-1.16l-2-4.34a1,1,0,0,0-.91-.58h-37a1,1,0,0,0-.91.58l-2.06,4.42c-.41.87-.56,1.08-.8,1.08A.74.74,0,0,1,9,50.48V41a1.48,1.48,0,0,1,1.48-1.48h43A1.48,1.48,0,0,1,55,41Z"/><circle cx="36.55" cy="19.3" r="1.25"/><circle cx="32" cy="19.3" r="1.25"/><circle cx="27.45" cy="19.3" r="1.25"/></g></svg>
