<?xml version="1.0" encoding="utf-8"?>
<!-- Generator: Adobe Illustrator 16.0.0, SVG Export Plug-In . SVG Version: 6.00 Build 0)  -->
<!DOCTYPE svg PUBLIC "-//W3C//DTD SVG 1.1 Tiny//EN" "http://www.w3.org/Graphics/SVG/1.1/DTD/svg11-tiny.dtd">
<svg fill="#c2c7d0" version="1.1" baseProfile="tiny" id="Layer_1" xmlns="http://www.w3.org/2000/svg" xmlns:xlink="http://www.w3.org/1999/xlink"
	 x="0px" y="0px" width="24px" height="24px" viewBox="0 0 24 24" xml:space="preserve">
<g>
	<path d="M2.6,2.983v18c0,0.221,0.18,0.4,0.4,0.4h18c0.221,0,0.4-0.18,0.4-0.4v-18c0-0.221-0.18-0.399-0.4-0.399H3
		C2.779,2.584,2.6,2.763,2.6,2.983z M3.4,3.384H20.6v17.2H3.4V3.384z"/>
	<path d="M1,0.584h4c0.221,0,0.4,0.179,0.4,0.399s-0.18,0.4-0.4,0.4H1.4v3.559c0,0.221-0.18,0.399-0.4,0.399S0.6,5.163,0.6,4.942
		V0.983C0.6,0.763,0.779,0.584,1,0.584z"/>
	<path d="M19,22.617h3.6v-3.56c0-0.221,0.18-0.399,0.4-0.399s0.4,0.179,0.4,0.399v3.959c0,0.221-0.18,0.399-0.4,0.399h-4
		c-0.221,0-0.4-0.179-0.4-0.399S18.779,22.617,19,22.617z"/>
</g>
</svg>
