<svg fill="#c2c7d0" xmlns="http://www.w3.org/2000/svg" viewBox="0 0 1024 1024" role="img"><path d="M767.906 285.672c-.02-.271-.035-.543-.061-.814-.03-.311-.073-.619-.112-.928-.026-.204-.047-.41-.078-.614-.049-.336-.11-.667-.169-1-.03-.177-.06-.355-.094-.532-.067-.337-.143-.67-.22-1.003-.04-.175-.077-.35-.121-.524a28.54 28.54 0 00-.258-.957c-.053-.188-.104-.375-.16-.561a30.128 30.128 0 00-.282-.878c-.07-.21-.14-.42-.213-.63-.093-.258-.192-.513-.29-.769-.093-.24-.186-.48-.283-.718-.092-.22-.189-.436-.285-.654a31.74 31.74 0 00-.362-.8c-.087-.184-.179-.364-.27-.546a31.901 31.901 0 00-.447-.873c-.08-.151-.167-.3-.25-.449a32.592 32.592 0 00-.53-.92c-.078-.131-.162-.26-.243-.39a29.212 29.212 0 00-.595-.928c-.084-.125-.173-.246-.258-.37-.21-.303-.42-.604-.64-.9-.098-.133-.202-.26-.302-.39-.215-.28-.43-.56-.655-.834-.132-.16-.27-.314-.406-.472-.203-.238-.403-.478-.615-.711-.22-.242-.45-.476-.676-.711-.135-.14-.264-.285-.403-.424-.134-.134-.273-.258-.41-.389-.24-.232-.479-.466-.726-.69-.228-.208-.464-.404-.696-.603-.163-.14-.322-.283-.487-.419a29.94 29.94 0 00-.823-.646c-.133-.103-.265-.21-.401-.311-.293-.218-.59-.425-.888-.631-.128-.09-.255-.181-.384-.268-.301-.203-.607-.394-.914-.586-.134-.084-.268-.17-.405-.253-.3-.18-.602-.351-.906-.521-.154-.086-.307-.175-.463-.258a31.157 31.157 0 00-.861-.441c-.186-.093-.37-.186-.556-.275a34.963 34.963 0 00-.792-.358c-.22-.097-.44-.196-.663-.288-.235-.098-.472-.188-.709-.28-.258-.1-.517-.2-.778-.293-.206-.074-.414-.142-.622-.211a31.69 31.69 0 00-.885-.285c-.184-.055-.37-.106-.554-.157-.32-.09-.64-.18-.964-.26-.173-.044-.345-.08-.52-.12a31.204 31.204 0 00-1.005-.22c-.177-.035-.354-.064-.53-.095-.333-.06-.666-.12-1.002-.17-.204-.03-.409-.051-.612-.077-.31-.04-.619-.081-.93-.112-.27-.026-.542-.042-.813-.061-.249-.018-.497-.042-.747-.054q-.79-.039-1.582-.04H608a32 32 0 000 64h50.744L320 658.744V608a32 32 0 00-64 0v128a32 32 0 0032 32h128a32 32 0 000-64h-50.744L704 365.256V416a32 32 0 0064 0V288q0-.791-.04-1.582c-.012-.25-.035-.497-.054-.746z"/><path d="M128 896h768V128H128zm64-704h640v640H192zM160 0a32 32 0 00-32 32v64h64V32a32 32 0 00-32-32zm704 0a32 32 0 00-32 32v64h64V32a32 32 0 00-32-32zm-32 992a32 32 0 0064 0v-64h-64zm-704 0a32 32 0 0064 0v-64h-64zM0 864a32 32 0 0032 32h64v-64H32a32 32 0 00-32 32zm992-32h-64v64h64a32 32 0 000-64zm0-704h-64v64h64a32 32 0 000-64zM0 160a32 32 0 0032 32h64v-64H32a32 32 0 00-32 32z"/></svg>
