<svg fill="#c2c7d0" id="Layer_1" data-name="Layer 1" xmlns="http://www.w3.org/2000/svg" viewBox="0 0 96 96"><path d="M82.12,70.77,11,70.66v-1.5l71.09.11A10.16,10.16,0,0,0,92.25,59.09a10.45,10.45,0,0,0-10.1-10.43c-6.65,0-22.15,0-37.14,0-14.67,0-28.53,0-33.17,0a.75.75,0,1,1,0-1.5c4.63,0,18.48,0,33.15,0,15,0,30.49,0,37.15,0A11.83,11.83,0,0,1,93.75,59.09,11.67,11.67,0,0,1,82.12,70.77Z"/><path d="M42,70.65A7.58,7.58,0,0,1,37.13,69c-3-2.44-4.29-7-4.19-10.42a13.68,13.68,0,0,1,1.89-7.08,9.19,9.19,0,0,1,6.69-4.28,9.45,9.45,0,0,1,8.29,3.73A12.61,12.61,0,0,1,52.14,59a13.54,13.54,0,0,1-1.77,6.79,10,10,0,0,1-6,4.56h0A10,10,0,0,1,42,70.65Zm2.2-1h0Zm-1.82-21-.67,0a7.8,7.8,0,0,0-5.57,3.59,12.26,12.26,0,0,0-1.66,6.32c-.09,3,1,7.1,3.63,9.21A6.47,6.47,0,0,0,44,68.89,8.4,8.4,0,0,0,49.08,65a12.08,12.08,0,0,0,1.56-6,11.17,11.17,0,0,0-2-7.13A8.14,8.14,0,0,0,42.34,48.66Z"/><path d="M42.15,67a5.21,5.21,0,0,1-3.33-1.16c-2.07-1.66-2.92-4.75-2.86-7.07A9.26,9.26,0,0,1,37.25,54,6.31,6.31,0,0,1,41.84,51a6.49,6.49,0,0,1,5.69,2.55,8.55,8.55,0,0,1,1.58,5.47,9.07,9.07,0,0,1-1.2,4.61,6.81,6.81,0,0,1-4.12,3.11h0A6.77,6.77,0,0,1,42.15,67Zm1.45-.94h0ZM42.41,52.51l-.41,0a4.86,4.86,0,0,0-3.49,2.25,7.78,7.78,0,0,0-1,4c-.05,1.88.64,4.52,2.3,5.85a4,4,0,0,0,3.66.67h0a5.36,5.36,0,0,0,3.21-2.43,7.79,7.79,0,0,0,1-3.86,7.07,7.07,0,0,0-1.27-4.54A5.12,5.12,0,0,0,42.41,52.51Z"/><path d="M42.35,62.4a2.81,2.81,0,0,1-1.8-.64,4.65,4.65,0,0,1-1.48-3.62,4.58,4.58,0,0,1,.66-2.44,3.37,3.37,0,0,1,2.44-1.56,3.46,3.46,0,0,1,3,1.35A4.44,4.44,0,0,1,46,58.3a4.77,4.77,0,0,1-.62,2.35,3.58,3.58,0,0,1-2.17,1.63h0A3.37,3.37,0,0,1,42.35,62.4Zm.69-.84Zm-.56-5.93h-.15A1.83,1.83,0,0,0,41,56.5a3.35,3.35,0,0,0-.44,1.68,3.21,3.21,0,0,0,.93,2.41,1.45,1.45,0,0,0,1.36.24h0a2.13,2.13,0,0,0,1.26-.95,3.27,3.27,0,0,0,.4-1.61A3,3,0,0,0,44,56.4,2,2,0,0,0,42.48,55.63Z"/><path d="M57.78,62.86a15.35,15.35,0,0,1-3.19-.29.75.75,0,0,1,.3-1.47,15.89,15.89,0,0,0,3.63.25,15.19,15.19,0,0,0,3.58-.54.76.76,0,0,1,.93.51.74.74,0,0,1-.51.93,17,17,0,0,1-3.94.6Z"/><path d="M66.89,66.1a16.06,16.06,0,0,1-3.19-.29.75.75,0,0,1,.3-1.47,15.39,15.39,0,0,0,3.63.24,14.72,14.72,0,0,0,3.58-.53.75.75,0,1,1,.42,1.44,16.63,16.63,0,0,1-3.94.59Z"/><path d="M80.66,67.67a15.42,15.42,0,0,1-3.19-.29.76.76,0,0,1-.58-.89.74.74,0,0,1,.88-.58,15.94,15.94,0,0,0,3.63.25A15.2,15.2,0,0,0,85,65.62a.75.75,0,0,1,.42,1.44,17.12,17.12,0,0,1-4,.6Z"/><path d="M79.67,54.71a15.25,15.25,0,0,1-3.18-.29.75.75,0,1,1,.3-1.47,14.87,14.87,0,0,0,3.63.25A15.19,15.19,0,0,0,84,52.66a.76.76,0,0,1,.93.51.74.74,0,0,1-.51.93,17,17,0,0,1-3.94.6Z"/><path d="M64.47,59.24a.84.84,0,0,1-.34-.08.75.75,0,0,1-.32-1,21.38,21.38,0,0,1,3.26-4.55.77.77,0,0,0,0-1,.73.73,0,0,0-.87-.2c-1.46.82-3.12,1.74-4.75,2.56-1.46.74-3.17,1.6-4.9,2.34A.75.75,0,1,1,56,56c1.68-.72,3.37-1.56,4.81-2.3,1.6-.8,3.25-1.72,4.7-2.53a2.22,2.22,0,0,1,2.79.6,2.25,2.25,0,0,1-.1,2.86,20.39,20.39,0,0,0-3,4.24A.74.74,0,0,1,64.47,59.24Z"/><path d="M29.23,48.69a.75.75,0,0,1-.75-.74v0a.75.75,0,1,1,.75.76Z"/><path d="M71.06,48.63a.75.75,0,0,1-.74-.61.77.77,0,0,1,.6-.88A10.17,10.17,0,0,0,69.17,27l-14.59-.1c-9.49-.05-19-.11-25.1-.17a.75.75,0,0,1,0-1.5h0c6.14.06,15.61.12,25.1.17l14.59.1a11.67,11.67,0,0,1,2,23.16Z"/><path d="M29,48.69A7.55,7.55,0,0,1,24.15,47c-3-2.44-4.29-7-4.19-10.42a13.61,13.61,0,0,1,1.89-7.08,9.21,9.21,0,0,1,6.68-4.27A9.47,9.47,0,0,1,36.83,29,12.58,12.58,0,0,1,39.15,37a13.48,13.48,0,0,1-1.77,6.8,10,10,0,0,1-6,4.55h0A9.61,9.61,0,0,1,29,48.69Zm.38-22c-.22,0-.45,0-.67,0a7.75,7.75,0,0,0-5.57,3.59,12.14,12.14,0,0,0-1.66,6.32c-.09,3,1,7.1,3.63,9.2A6.47,6.47,0,0,0,31,46.93h0a8.53,8.53,0,0,0,5.11-3.87A12.09,12.09,0,0,0,37.65,37a11.08,11.08,0,0,0-2-7.12A8.15,8.15,0,0,0,29.36,26.69Z"/><path d="M29.17,45a5.24,5.24,0,0,1-3.34-1.16C23.77,42.2,22.91,39.12,23,36.8A9.32,9.32,0,0,1,24.26,32a6.34,6.34,0,0,1,4.6-2.94,6.54,6.54,0,0,1,5.69,2.56,8.54,8.54,0,0,1,1.58,5.47,9.16,9.16,0,0,1-1.2,4.6,6.85,6.85,0,0,1-4.13,3.12h0A6.69,6.69,0,0,1,29.17,45Zm1.45-.94h0ZM29.43,30.54a3,3,0,0,0-.42,0,4.86,4.86,0,0,0-3.48,2.24,7.81,7.81,0,0,0-1.05,4c-.06,1.89.64,4.53,2.29,5.86a4,4,0,0,0,3.67.66h0a5.3,5.3,0,0,0,3.2-2.43,7.66,7.66,0,0,0,1-3.86,7.1,7.1,0,0,0-1.27-4.53A5.11,5.11,0,0,0,29.43,30.54Z"/><path d="M29.37,40.43a2.8,2.8,0,0,1-1.8-.63,5,5,0,0,1-.82-6.07,3.33,3.33,0,0,1,2.44-1.55,3.45,3.45,0,0,1,3,1.35,4.39,4.39,0,0,1,.82,2.8,4.71,4.71,0,0,1-.62,2.35,3.58,3.58,0,0,1-2.18,1.64A3.69,3.69,0,0,1,29.37,40.43Zm.13-6.77h-.16a1.91,1.91,0,0,0-1.33.87,3.55,3.55,0,0,0,.5,4.09,1.44,1.44,0,0,0,1.36.23h0a2,2,0,0,0,1.25-1,3.26,3.26,0,0,0,.41-1.6A2.91,2.91,0,0,0,31,34.44,2,2,0,0,0,29.5,33.66Z"/><path d="M44.8,40.9a16.06,16.06,0,0,1-3.19-.29.76.76,0,0,1-.59-.89.75.75,0,0,1,.89-.58,15.39,15.39,0,0,0,3.63.24,15.23,15.23,0,0,0,3.58-.53.75.75,0,1,1,.42,1.44,16.63,16.63,0,0,1-3.94.59Z"/><path d="M53.9,44.13a15.25,15.25,0,0,1-3.18-.29.75.75,0,0,1-.59-.88.76.76,0,0,1,.89-.59,15.34,15.34,0,0,0,3.63.25,15.19,15.19,0,0,0,3.58-.54.76.76,0,0,1,.93.52.75.75,0,0,1-.51.93,17.15,17.15,0,0,1-3.94.59Z"/><path d="M67.68,45.7a16.11,16.11,0,0,1-3.19-.28.74.74,0,0,1-.58-.89.74.74,0,0,1,.88-.58,15.39,15.39,0,0,0,3.63.24A15.77,15.77,0,0,0,72,43.66a.75.75,0,1,1,.42,1.44,16.54,16.54,0,0,1-3.94.59Z"/><path d="M66.69,32.75a16.14,16.14,0,0,1-3.19-.29.76.76,0,0,1-.58-.89.75.75,0,0,1,.89-.58,15.39,15.39,0,0,0,3.63.24A15.77,15.77,0,0,0,71,30.7a.75.75,0,0,1,.93.51.75.75,0,0,1-.51.93,16.63,16.63,0,0,1-4,.59Z"/><path d="M51.49,37.28a.72.72,0,0,1-.34-.09.75.75,0,0,1-.33-1,22,22,0,0,1,3.26-4.55.75.75,0,0,0,0-.95.73.73,0,0,0-.87-.2c-1.46.81-3.12,1.73-4.75,2.55-1.46.75-3.16,1.6-4.91,2.35a.75.75,0,0,1-1-.4A.74.74,0,0,1,43,34c1.7-.73,3.38-1.57,4.82-2.3,1.61-.81,3.25-1.73,4.7-2.53a2.22,2.22,0,0,1,2.69,3.45,20.42,20.42,0,0,0-3.05,4.25A.75.75,0,0,1,51.49,37.28Z"/><path d="M11.21,70.66A7.42,7.42,0,0,1,6.44,69c-3-2.42-4.29-7.06-4.18-10.58a13.92,13.92,0,0,1,1.88-7.15,8.92,8.92,0,0,1,6.64-4.12,9.37,9.37,0,0,1,8.35,3.56,12.84,12.84,0,0,1,2.32,8.15,13.72,13.72,0,0,1-1.77,6.87,10,10,0,0,1-6,4.6h0A10.18,10.18,0,0,1,11.21,70.66Zm.49-22c-.25,0-.51,0-.76,0a7.38,7.38,0,0,0-5.52,3.43,12.4,12.4,0,0,0-1.67,6.39c-.08,3.05,1,7.28,3.63,9.37a6.43,6.43,0,0,0,5.91,1h0A8.46,8.46,0,0,0,18.39,65,12.23,12.23,0,0,0,20,58.84a11.39,11.39,0,0,0-2-7.21A8,8,0,0,0,11.7,48.61Z"/><path d="M11.47,67A5.21,5.21,0,0,1,8.16,65.8C6.07,64.13,5.21,61,5.28,58.64A9.32,9.32,0,0,1,6.56,53.8a6.33,6.33,0,0,1,4.59-3,6.49,6.49,0,0,1,5.7,2.59,8.66,8.66,0,0,1,1.58,5.52,9.43,9.43,0,0,1-1.2,4.65,6.86,6.86,0,0,1-4.13,3.15h0A6.75,6.75,0,0,1,11.47,67ZM12.92,66h0ZM11.73,52.3l-.42,0A4.84,4.84,0,0,0,7.83,54.6a7.88,7.88,0,0,0-1,4.08c-.06,1.92.64,4.61,2.32,5.95a4,4,0,0,0,3.63.65h0a5.31,5.31,0,0,0,3.21-2.46,7.83,7.83,0,0,0,1-3.91,7.28,7.28,0,0,0-1.28-4.59A5.09,5.09,0,0,0,11.73,52.3Z"/><path d="M11.67,62.3a2.76,2.76,0,0,1-1.79-.63A4.69,4.69,0,0,1,8.38,58,4.78,4.78,0,0,1,9,55.54,3.4,3.4,0,0,1,11.48,54a3.47,3.47,0,0,1,3,1.37,4.47,4.47,0,0,1,.81,2.83,4.71,4.71,0,0,1-.61,2.37,3.63,3.63,0,0,1-2.18,1.65h0A3.69,3.69,0,0,1,11.67,62.3Zm.68-.84h0Zm-.55-6h-.16a1.88,1.88,0,0,0-1.33.87,3.34,3.34,0,0,0-.43,1.71,3.27,3.27,0,0,0,.93,2.45,1.46,1.46,0,0,0,1.35.24h0a2.12,2.12,0,0,0,1.26-1,3.33,3.33,0,0,0,.4-1.63,3,3,0,0,0-.51-1.9A2,2,0,0,0,11.8,55.46Z"/><path d="M26.12,54a15.21,15.21,0,0,1-3.18-.3.75.75,0,0,1-.59-.88.76.76,0,0,1,.89-.59,14.87,14.87,0,0,0,3.63.25A15.19,15.19,0,0,0,30.45,52a.75.75,0,0,1,.93.51.75.75,0,0,1-.51.93,16,16,0,0,1-3.94.6Z"/><path d="M27.09,62.77a15.42,15.42,0,0,1-3.19-.29.76.76,0,0,1-.58-.89.75.75,0,0,1,.89-.58,14.83,14.83,0,0,0,3.63.25,15.19,15.19,0,0,0,3.58-.54.75.75,0,0,1,.93.51.76.76,0,0,1-.51.93,17.12,17.12,0,0,1-3.94.6Z"/></svg>
