<?xml version="1.0" encoding="iso-8859-1"?>
<!-- Generator: Adobe Illustrator 16.0.0, SVG Export Plug-In . SVG Version: 6.00 Build 0)  -->
<!DOCTYPE svg PUBLIC "-//W3C//DTD SVG 1.1//EN" "http://www.w3.org/Graphics/SVG/1.1/DTD/svg11.dtd">
<svg fill="#c2c7d0" version="1.1" id="Capa_1" xmlns="http://www.w3.org/2000/svg" xmlns:xlink="http://www.w3.org/1999/xlink" x="0px" y="0px"
	 width="637.354px" height="637.354px" viewBox="0 0 637.354 637.354" style="enable-background:new 0 0 637.354 637.354;"
	 xml:space="preserve">
<g>
	<g>
		<path d="M504.424,379.256c0,7.196-10.221,12.856-22.726,12.856H363.263c-12.524,0-22.755-5.66-22.755-12.856v-23.057
			c0-7.157,10.23-12.836,22.755-12.836h118.445c12.505,0,22.716,5.679,22.716,12.836V379.256L504.424,379.256L504.424,379.256z
			 M504.939,310.383H339.866c-1.312,0-2.742,0.17-4.046,0.477v-0.477h-27.778V425.38h27.778v-0.467
			c1.304,0.311,2.733,0.467,4.046,0.467h165.073c17.688,0,31.828-13.459,31.828-30.185v-54.574
			C536.768,323.855,522.628,310.383,504.939,310.383L504.939,310.383z"/>
		<g>
			<path d="M504.424,527.584c0,7.002-10.221,12.661-22.726,12.661H363.263c-12.524,0-22.755-5.659-22.755-12.661v-23.223
				c0-6.952,10.23-12.836,22.755-12.836h118.445c12.505,0,22.716,5.884,22.716,12.836V527.584L504.424,527.584L504.424,527.584z
				 M504.939,458.569H339.866c-1.312,0-2.742,0.194-4.046,0.486v-0.486h-27.778v115.177h27.778v-0.477
				c1.304,0.312,2.733,0.477,4.046,0.477h165.073c17.688,0,31.828-13.634,31.828-30.204v-54.769
				C536.768,472.037,522.628,458.569,504.939,458.569L504.939,458.569z"/>
			<path d="M602.972,281.209v344.758c0,0,0.321,11.387-9.899,11.387h-12.194c0,0-11.378-0.466-11.378-12.175V310.295
				c0-16.094-12.836-29.086-28.609-29.086H97.084c-15.924,0-28.76,12.992-28.76,29.086v315.03c-0.18,4.064-1.95,12.02-11.548,12.02
				h-8.932c0,0-13.463,0.467-13.463-12.681V281.209c0-17.869,14.606-32.504,32.479-32.504h281.524
				c0.194-0.302,0.312-0.467,0.525-0.817c0-0.19,0-0.331,0.155-0.331c0.506-0.982,0.992-1.78,1.634-2.597
				c0,0,0.175-0.17,0.312-0.321c12.02-20.64,32.985-35.577,57.676-39.642l37.691-66.287c0-0.17,0.156-0.17,0.156-0.33
				c2.927-4.857,0.204-10.07-1.624-12.666c-0.798-1.139-1.459-1.795-1.459-1.795l-44.169-51.33l-21.141,55.721l-52.128-53.781
				l-2.28-2.436l-28.109-28.114l60.579-23.052h0.185c1.449-2.44,3.219-4.73,5.358-7.001c15.403-16.24,39.481-18.681,53.611-5.188
				c11.835,11.383,13.138,30.214,3.919,45.656l61.07,71.159c0,0,0.505,0.321,0.816,0.978c0.175,0.17,0.33,0.477,0.486,0.826
				c0.175,0.827,0.33,1.931-0.156,3.404c0,0.34-0.175,0.651-0.33,1.138c-0.176,0.477-0.486,0.973-0.816,1.463v0.316l-40.931,71.806
				c22.415,4.561,41.61,18.204,53.436,36.875l3.754,6.175v0.161h73.926C588.347,248.705,602.972,263.331,602.972,281.209
				L602.972,281.209z"/>
		</g>
	</g>
</g>
<g>
</g>
<g>
</g>
<g>
</g>
<g>
</g>
<g>
</g>
<g>
</g>
<g>
</g>
<g>
</g>
<g>
</g>
<g>
</g>
<g>
</g>
<g>
</g>
<g>
</g>
<g>
</g>
<g>
</g>
</svg>
